<svg width="24" height="24" viewBox="0 0 24 24" fill="none" xmlns="http://www.w3.org/2000/svg">
<g clip-path="url(#clip0_1613_8122)">
<path d="M19.916 16.0845C19.2599 16.7405 18.1961 16.7405 17.5401 16.0845L14.6436 13.1879C13.9875 12.5319 13.9875 11.4682 14.6436 10.8121L17.5401 7.91562C18.1961 7.25953 19.2599 7.25953 19.916 7.91562L22.8125 10.8121C23.4686 11.4682 23.4686 12.5319 22.8125 13.1879L19.916 16.0845ZM6.46072 16.0845C5.80464 16.7405 4.74091 16.7405 4.08484 16.0845L1.18835 13.1879C0.532269 12.5319 0.532268 11.4682 1.18835 10.8121L4.08484 7.91562C4.74091 7.25953 5.80464 7.25953 6.46072 7.91562L9.3572 10.8121C10.0133 11.4682 10.0133 12.5319 9.3572 13.1879L6.46072 16.0845ZM13.1884 22.812C12.5322 23.4682 11.4686 23.4682 10.8125 22.812L7.91598 19.9156C7.2599 19.2596 7.2599 18.1958 7.91598 17.5397L10.8125 14.6433C11.4686 13.9871 12.5322 13.9871 13.1884 14.6433L16.0848 17.5397C16.7409 18.1958 16.7409 19.2596 16.0848 19.9156L13.1884 22.812ZM13.1884 9.35683C12.5322 10.0129 11.4686 10.0129 10.8125 9.35683L7.91598 6.46034C7.2599 5.80427 7.2599 4.74055 7.91598 4.08446L10.8125 1.18798C11.4686 0.531903 12.5322 0.531902 13.1884 1.18798L16.0848 4.08446C16.7409 4.74055 16.7409 5.80427 16.0848 6.46034L13.1884 9.35683Z" fill="#1B2638"/>
</g>
<defs>
<clipPath id="clip0_1613_8122">
<rect width="24" height="24" fill="white"/>
</clipPath>
</defs>
</svg>
