<svg width="54" height="54" viewBox="0 0 54 54" fill="none" xmlns="http://www.w3.org/2000/svg">
<g clip-path="url(#clip0_1613_8137)">
<path d="M27 54C41.9117 54 54 41.9117 54 27C54 12.0883 41.9117 0 27 0C12.0883 0 0 12.0883 0 27C0 41.9117 12.0883 54 27 54Z" fill="#D80027"/>
<path d="M42.261 20.04H32.4813C33.085 19.4078 33.4565 18.552 33.4565 17.6087C33.4565 15.6638 31.8798 14.087 29.9348 14.087C28.7095 14.087 27.6309 14.7131 27.0001 15.6624C26.3693 14.7131 25.2905 14.087 24.0653 14.087C22.1203 14.087 20.5436 15.6638 20.5436 17.6087C20.5436 18.552 20.9151 19.4079 21.5188 20.04H11.7393C11.7393 22.6334 13.9981 24.7356 16.5912 24.7356H16.4347C16.4347 27.3291 18.537 29.4314 21.1305 29.4314C21.1305 30.2713 21.3519 31.0588 21.7383 31.7405L17.8434 35.6356L20.8317 38.6237L25.0707 34.3848C25.2367 34.4457 25.4085 34.4945 25.5859 34.5277L23.0244 40.3111L27.0001 44.6087L30.9757 40.3109L28.4142 34.5275C28.5917 34.4943 28.7634 34.4456 28.9294 34.3846L33.1684 38.6235L36.1568 35.6353L32.2617 31.7402C32.6482 31.0585 32.8696 30.271 32.8696 29.4311C35.463 29.4311 37.5653 27.3288 37.5653 24.7353H37.4089C40.002 24.7355 42.261 22.6334 42.261 20.04Z" fill="#1B2638"/>
</g>
<defs>
<clipPath id="clip0_1613_8137">
<rect width="54" height="54" fill="white"/>
</clipPath>
</defs>
</svg>
