<svg width="143" height="50" viewBox="0 0 143 50" fill="none" xmlns="http://www.w3.org/2000/svg">
<rect width="143" height="50" rx="16" fill="#1B2638"/>
<path d="M50.4361 14.5314C50.4361 15.3874 50.2252 16.1365 49.698 16.6716C49.0653 17.3136 48.3272 17.6347 47.3782 17.6347C46.4292 17.6347 45.691 17.3136 45.0584 16.6716C44.4257 16.0295 44.1094 15.2804 44.1094 14.3173C44.1094 13.3542 44.4257 12.6052 45.0584 11.9631C45.691 11.321 46.4292 11 47.3782 11C47.8 11 48.2217 11.107 48.6435 11.321C49.0653 11.5351 49.3816 11.7491 49.5925 12.0701L49.0653 12.6052C48.6435 12.0701 48.1163 11.8561 47.3782 11.8561C46.7455 11.8561 46.1128 12.0701 45.6911 12.6052C45.1638 13.0332 44.9529 13.6753 44.9529 14.4243C44.9529 15.1734 45.1638 15.8155 45.6911 16.2435C46.2183 16.6716 46.7455 16.9926 47.3782 16.9926C48.1163 16.9926 48.6435 16.7786 49.1707 16.2435C49.4871 15.9225 49.698 15.4944 49.698 14.9594H47.3782V14.1033H50.4361V14.5314ZM55.2866 11.8561H52.4395V13.8893H55.0757V14.6384H52.4395V16.6716H55.2866V17.5277H51.596V11.107H55.2866V11.8561ZM58.7662 17.5277H57.9227V11.8561H56.1301V11.107H60.5588V11.8561H58.7662V17.5277ZM63.6167 17.5277V11.107H64.4603V17.5277H63.6167ZM68.0454 17.5277H67.2018V11.8561H65.4093V11.107H69.7325V11.8561H67.94V17.5277H68.0454ZM78.0627 16.6716C77.43 17.3136 76.6919 17.6347 75.7429 17.6347C74.7939 17.6347 74.0558 17.3136 73.4231 16.6716C72.7904 16.0295 72.4741 15.2804 72.4741 14.3173C72.4741 13.3542 72.7904 12.6052 73.4231 11.9631C74.0558 11.321 74.7939 11 75.7429 11C76.6919 11 77.43 11.321 78.0627 11.9631C78.6954 12.6052 79.0117 13.3542 79.0117 14.3173C79.0117 15.2804 78.6954 16.0295 78.0627 16.6716ZM74.0558 16.1365C74.4776 16.5646 75.1102 16.8856 75.7429 16.8856C76.3756 16.8856 77.0082 16.6716 77.43 16.1365C77.8518 15.7085 78.1681 15.0664 78.1681 14.3173C78.1681 13.5683 77.9572 12.9262 77.43 12.4981C77.0082 12.0701 76.3756 11.7491 75.7429 11.7491C75.1102 11.7491 74.4776 11.9631 74.0558 12.4981C73.634 12.9262 73.3177 13.5683 73.3177 14.3173C73.3177 15.0664 73.5285 15.7085 74.0558 16.1365ZM80.1716 17.5277V11.107H81.1206L84.1785 16.1365V11.107H85.0221V17.5277H84.1785L80.9097 12.2841V17.5277H80.1716Z" fill="white" stroke="#1B2638" stroke-width="0.210782" stroke-miterlimit="10"/>
<path d="M72.2631 26.9447C69.7325 26.9447 67.729 28.8709 67.729 31.5461C67.729 34.1144 69.7325 36.1476 72.2631 36.1476C74.7938 36.1476 76.7973 34.2214 76.7973 31.5461C76.7973 28.7638 74.7938 26.9447 72.2631 26.9447ZM72.2631 34.2214C70.8923 34.2214 69.7325 33.0443 69.7325 31.4391C69.7325 29.834 70.8923 28.6568 72.2631 28.6568C73.6339 28.6568 74.7938 29.7269 74.7938 31.4391C74.7938 33.0443 73.6339 34.2214 72.2631 34.2214ZM62.4567 26.9447C59.9261 26.9447 57.9226 28.8709 57.9226 31.5461C57.9226 34.1144 59.9261 36.1476 62.4567 36.1476C64.9874 36.1476 66.9909 34.2214 66.9909 31.5461C66.9909 28.7638 64.9874 26.9447 62.4567 26.9447ZM62.4567 34.2214C61.086 34.2214 59.9261 33.0443 59.9261 31.4391C59.9261 29.834 61.086 28.6568 62.4567 28.6568C63.8275 28.6568 64.9874 29.7269 64.9874 31.4391C64.9874 33.0443 63.8275 34.2214 62.4567 34.2214ZM50.7523 28.3358V30.262H55.2865C55.181 31.3321 54.7593 32.1882 54.232 32.7232C53.5994 33.3653 52.5449 34.1144 50.7523 34.1144C47.9053 34.1144 45.7964 31.8672 45.7964 28.9779C45.7964 26.0886 48.0108 23.8414 50.7523 23.8414C52.2286 23.8414 53.3885 24.4834 54.232 25.2325L55.6028 23.8414C54.4429 22.7712 52.9667 21.9152 50.8578 21.9152C47.0618 21.9152 43.793 25.1255 43.793 28.9779C43.793 32.8303 47.0618 36.0406 50.8578 36.0406C52.9667 36.0406 54.4429 35.3985 55.7083 34.0074C56.9736 32.7232 57.3954 30.9041 57.3954 29.5129C57.3954 29.0849 57.3954 28.6568 57.2899 28.3358H50.7523ZM98.6244 29.834C98.2026 28.7638 97.1482 26.9447 94.8284 26.9447C92.5086 26.9447 90.6106 28.7638 90.6106 31.5461C90.6106 34.1144 92.5086 36.1476 95.0393 36.1476C97.0427 36.1476 98.3081 34.8635 98.7298 34.1144L97.2536 33.0443C96.7264 33.7933 96.0937 34.3284 95.0393 34.3284C93.9848 34.3284 93.3521 33.9004 92.8249 32.9373L98.8353 30.369L98.6244 29.834ZM92.5086 31.3321C92.5086 29.6199 93.8794 28.6568 94.8284 28.6568C95.5665 28.6568 96.3046 29.0849 96.5155 29.6199L92.5086 31.3321ZM87.5527 35.7195H89.5561V22.3432H87.5527V35.7195ZM84.3893 27.9078C83.8621 27.3727 83.0185 26.8377 81.9641 26.8377C79.7497 26.8377 77.6408 28.8709 77.6408 31.4391C77.6408 34.0074 79.6443 35.9336 81.9641 35.9336C83.0185 35.9336 83.8621 35.3985 84.2839 34.8635H84.3893V35.5055C84.3893 37.2177 83.4403 38.1808 81.9641 38.1808C80.8042 38.1808 79.9606 37.3247 79.7497 36.5756L78.0626 37.3247C78.5898 38.5018 79.8552 40 82.0695 40C84.3893 40 86.2873 38.6088 86.2873 35.2915V27.1587H84.3893V27.9078ZM82.0695 34.2214C80.6987 34.2214 79.5388 33.0443 79.5388 31.4391C79.5388 29.834 80.6987 28.6568 82.0695 28.6568C83.4403 28.6568 84.4948 29.834 84.4948 31.4391C84.4948 33.0443 83.4403 34.2214 82.0695 34.2214ZM107.798 22.3432H103.053V35.7195H105.057V30.69H107.798C110.012 30.69 112.121 29.0849 112.121 26.5166C112.121 23.9484 110.012 22.3432 107.798 22.3432ZM107.904 28.7638H105.057V24.1624H107.904C109.38 24.1624 110.223 25.4465 110.223 26.4096C110.118 27.5867 109.274 28.7638 107.904 28.7638ZM120.03 26.8377C118.554 26.8377 117.077 27.4797 116.55 28.8709L118.343 29.6199C118.764 28.8709 119.397 28.6568 120.135 28.6568C121.19 28.6568 122.139 29.2989 122.244 30.369V30.476C121.928 30.262 121.084 29.941 120.241 29.941C118.343 29.941 116.445 31.0111 116.445 32.9373C116.445 34.7564 118.026 35.9336 119.713 35.9336C121.084 35.9336 121.717 35.2915 122.244 34.6494H122.35V35.7195H124.248V30.583C124.037 28.2288 122.244 26.8377 120.03 26.8377ZM119.819 34.2214C119.186 34.2214 118.237 33.9004 118.237 33.0443C118.237 31.9742 119.397 31.6531 120.346 31.6531C121.19 31.6531 121.611 31.8672 122.139 32.0812C121.928 33.3653 120.873 34.2214 119.819 34.2214ZM130.891 27.1587L128.676 32.9373H128.571L126.251 27.1587H124.142L127.622 35.2915L125.618 39.7859H127.622L132.999 27.1587H130.891ZM113.176 35.7195H115.179V22.3432H113.176V35.7195Z" fill="white"/>
<path d="M24.458 25.0167V25.0236L11.6367 38.0353C11.412 37.7621 11.25 37.3288 11.25 36.7911V13.1417C11.25 12.6583 11.3137 12.2852 11.4512 12.0265L24.458 25.0167Z" fill="white" stroke="#1B2638" stroke-width="0.5"/>
<path d="M34.0723 23.8458C34.7644 24.2472 35.0557 24.74 35.0557 25.1818C35.0555 25.6234 34.7642 26.1154 34.0723 26.5167L28.9707 29.3126L24.8525 25.1329V25.0148L28.9385 20.8683L34.0723 23.8458Z" fill="white" stroke="#1B2638" stroke-width="0.5"/>
<path d="M28.627 29.4591L13.5215 38.2784C13.0709 38.4803 12.6933 38.5711 12.3799 38.5597C12.1576 38.5516 11.9633 38.4917 11.79 38.3761L24.6025 25.3741L28.627 29.4591Z" fill="white" stroke="#1B2638" stroke-width="0.5"/>
<path d="M12.3887 11.545C12.6944 11.5229 13.0671 11.6092 13.5117 11.8595V11.8605L28.626 20.5802L24.6016 24.6642L11.7881 11.7648C11.968 11.6358 12.1674 11.5611 12.3887 11.545Z" fill="white" stroke="#1B2638" stroke-width="0.5"/>
<path opacity="0.2" d="M28.9258 29.4064L13.6362 38.1812C12.7927 38.7163 12.0545 38.6093 11.5273 38.1812L11.4219 38.2883L11.5273 38.3953C12.0545 38.8233 12.7927 38.9303 13.6362 38.3953L28.9258 29.4064Z" fill="white"/>
<path opacity="0.12" d="M11.4218 38.181C11.1054 37.86 11 37.3249 11 36.6828V36.7899C11 37.4319 11.2109 37.967 11.5272 38.288V38.181H11.4218ZM34.1979 26.4098L28.9257 29.4061L29.0311 29.5131L34.1979 26.5168C34.936 26.0888 35.2524 25.5537 35.2524 25.0187C35.2524 25.5537 34.8306 25.9818 34.1979 26.4098Z" fill="white"/>
<path opacity="0.25" d="M13.6361 11.7503L34.1979 23.6285C34.8306 24.0565 35.2524 24.4846 35.2524 25.0196C35.2524 24.4846 34.936 23.9495 34.1979 23.5215L13.6361 11.6433C12.1599 10.7872 11 11.4293 11 13.1414V13.2485C11 11.6433 12.1599 10.8942 13.6361 11.7503Z" fill="white"/>
</svg>
