<svg width="25" height="25" viewBox="0 0 25 25" fill="none" xmlns="http://www.w3.org/2000/svg">
<path d="M3.20382 7.79452L7.67053 10.985C7.90296 11.151 8.01917 11.234 8.1408 11.2531C8.24782 11.27 8.35742 11.253 8.45435 11.2046C8.5645 11.1496 8.65019 11.0354 8.82156 10.8069L9.76542 9.54837C9.81388 9.48376 9.83811 9.45145 9.86659 9.42358C9.89188 9.39883 9.91963 9.37672 9.9494 9.3576C9.98293 9.33607 10.0198 9.31967 10.0936 9.28686L14.1234 7.49585C14.2905 7.4216 14.374 7.38448 14.437 7.32651C14.4927 7.27523 14.5365 7.21242 14.5655 7.14246C14.5982 7.06336 14.6043 6.97216 14.6165 6.78977L14.9115 2.36388M14.0622 14.0624L16.7872 15.2303C17.1034 15.3658 17.2614 15.4335 17.3452 15.5461C17.4186 15.6448 17.4548 15.7663 17.4472 15.8892C17.4385 16.0292 17.3431 16.1723 17.1523 16.4585L15.8721 18.3789C15.7816 18.5145 15.7364 18.5824 15.6766 18.6315C15.6237 18.6749 15.5628 18.7076 15.4973 18.7275C15.4233 18.7499 15.3417 18.7499 15.1787 18.7499H13.1003C12.8843 18.7499 12.7763 18.7499 12.6844 18.7138C12.6033 18.6819 12.5315 18.6301 12.4755 18.5632C12.4122 18.4875 12.378 18.385 12.3097 18.1801L11.5672 15.9524C11.5269 15.8315 11.5067 15.7711 11.5014 15.7097C11.4967 15.6552 11.5006 15.6004 11.513 15.5471C11.5269 15.4871 11.5554 15.4301 11.6124 15.3162L12.1765 14.188C12.2911 13.9588 12.3484 13.8442 12.4366 13.7731C12.5144 13.7103 12.6086 13.6713 12.7079 13.6607C12.8207 13.6486 12.9422 13.6891 13.1853 13.7701L14.0622 14.0624ZM22.9163 12.4999C22.9163 18.2529 18.2526 22.9166 12.4997 22.9166C6.74671 22.9166 2.08301 18.2529 2.08301 12.4999C2.08301 6.74695 6.74671 2.08325 12.4997 2.08325C18.2526 2.08325 22.9163 6.74695 22.9163 12.4999Z" stroke="#C79126" stroke-width="2" stroke-linecap="round" stroke-linejoin="round"/>
</svg>
