<svg width="143" height="50" viewBox="0 0 143 50" fill="none" xmlns="http://www.w3.org/2000/svg">
<rect width="143" height="50" rx="16" fill="#1B2638"/>
<path d="M32.3334 23.9316C32.3027 20.622 35.1242 19.0119 35.2533 18.9369C33.6553 16.6747 31.1786 16.3656 30.3082 16.341C28.2281 16.1284 26.2103 17.5496 25.1507 17.5496C24.0699 17.5496 22.4381 16.3615 20.6795 16.3964C18.4163 16.4303 16.2992 17.7026 15.138 19.6783C12.7416 23.7067 14.5289 29.6267 16.8248 32.8829C17.9732 34.4787 19.3152 36.2582 21.0718 36.1956C22.7903 36.1278 23.4322 35.1328 25.506 35.1328C27.5608 35.1328 28.1636 36.1956 29.955 36.1556C31.7994 36.1278 32.9605 34.5536 34.0688 32.9445C35.396 31.1177 35.929 29.3166 35.9502 29.2241C35.9079 29.2098 32.3694 27.8974 32.3334 23.9316ZM28.9493 14.1989C29.8736 13.0765 30.506 11.5496 30.3305 10C28.9927 10.0575 27.3197 10.8985 26.3563 11.9962C25.5039 12.9636 24.7425 14.5491 24.9392 16.0401C26.4419 16.1489 27.9849 15.3038 28.9493 14.1989Z" fill="white"/>
<path d="M57.0007 36.8654H54.6134L53.3057 32.7122H48.7603L47.5146 36.8654H45.1904L49.6948 22.7259H52.4763L57.0007 36.8654ZM52.9115 30.9697L51.7289 27.2776C51.6038 26.9004 51.3683 26.0122 51.0235 24.6139H50.9815C50.8427 25.2153 50.6209 26.1035 50.3171 27.2776L49.1545 30.9697H52.9115ZM68.5617 31.6423C68.5617 33.3762 68.0961 34.7468 67.1637 35.753C66.329 36.6487 65.2915 37.096 64.0542 37.096C62.7181 37.096 61.7573 36.6147 61.1739 35.6499V40.9995H58.9328V30.0209C58.9328 28.9319 58.9044 27.8152 58.8497 26.6698H60.8207L60.9458 28.2859H60.9879C61.7353 27.0683 62.8695 26.4595 64.3916 26.4595C65.5816 26.4595 66.575 26.9344 67.3697 27.8853C68.1633 28.8384 68.5617 30.09 68.5617 31.6423ZM66.2785 31.7251C66.2785 30.7328 66.0578 29.9147 65.6142 29.2697C65.1296 28.5993 64.4789 28.2636 63.6632 28.2636C63.1102 28.2636 62.6078 28.4506 62.1589 28.8192C61.709 29.1911 61.4146 29.6767 61.2769 30.278C61.2155 30.5029 61.1805 30.7344 61.1729 30.9676V32.6686C61.1729 33.4092 61.3978 34.035 61.8477 34.5471C62.2976 35.0571 62.8821 35.3131 63.6011 35.3131C64.4452 35.3131 65.1022 34.9827 65.5721 34.3271C66.0431 33.6695 66.2785 32.8025 66.2785 31.7251ZM80.1638 31.6423C80.1638 33.3762 79.6982 34.7468 78.7657 35.753C77.93 36.6487 76.8936 37.096 75.6552 37.096C74.3192 37.096 73.3584 36.6147 72.775 35.6499V40.9995H70.5338V30.0209C70.5338 28.9319 70.5054 27.8152 70.4508 26.6698H72.4217L72.5468 28.2859H72.5889C73.3352 27.0683 74.4695 26.4595 75.9927 26.4595C77.1816 26.4595 78.175 26.9344 78.9718 27.8853C79.7644 28.8384 80.1638 30.09 80.1638 31.6423ZM77.8796 31.7251C77.8796 30.7328 77.6578 29.9147 77.2142 29.2697C76.7296 28.5993 76.081 28.2636 75.2652 28.2636C74.7123 28.2636 74.2098 28.4506 73.7589 28.8192C73.309 29.1911 73.0157 29.6767 72.878 30.278C72.8096 30.5585 72.7729 30.787 72.7729 30.9676V32.6686C72.7729 33.4092 72.9989 34.035 73.4467 34.5471C73.8966 35.056 74.4811 35.3131 75.2022 35.3131C76.0473 35.3131 76.7043 34.9827 77.1732 34.3271C77.6441 33.6695 77.8796 32.8025 77.8796 31.7251ZM93.1356 32.8992C93.1356 34.103 92.7194 35.0815 91.8921 35.8369C90.9817 36.6614 89.7108 37.0747 88.0815 37.0747C86.5762 37.0747 85.3694 36.7815 84.459 36.1939L84.9773 34.3059C85.9601 34.8945 87.0397 35.1878 88.215 35.1878C89.0601 35.1878 89.7171 34.9944 90.186 34.6108C90.6559 34.2262 90.8934 33.712 90.8934 33.0702C90.8934 32.4954 90.6968 32.0141 90.3111 31.6221C89.9232 31.2311 89.2819 30.8666 88.3811 30.532C85.9318 29.6087 84.7061 28.2583 84.7061 26.4818C84.7061 25.3216 85.1392 24.3717 86.0032 23.629C86.8673 22.8874 88.0131 22.5166 89.4386 22.5166C90.7116 22.5166 91.7722 22.7408 92.6142 23.1881L92.0519 25.0347C91.2592 24.6012 90.3647 24.3844 89.3639 24.3844C88.5734 24.3844 87.9532 24.581 87.5096 24.972C87.1364 25.3216 86.9472 25.7476 86.9472 26.2533C86.9472 26.8112 87.1627 27.2744 87.5916 27.6378C87.9637 27.9724 88.6428 28.3369 89.6246 28.7279C90.8293 29.2187 91.7144 29.7903 92.281 30.447C92.8518 31.1036 93.1356 31.9227 93.1356 32.8992ZM100.564 28.3698H98.0941V33.3199C98.0941 34.5789 98.5293 35.2069 99.4018 35.2069C99.8023 35.2069 100.135 35.1729 100.397 35.1017L100.459 36.8218C100.018 36.9887 99.4365 37.0726 98.7165 37.0726C97.8313 37.0726 97.1397 36.7995 96.6403 36.2534C96.1431 35.7073 95.8929 34.7925 95.8929 33.5048V28.3656H94.4213V26.6656H95.8929V24.7988L98.0941 24.1273V26.6656H100.564V28.3698ZM111.688 31.6837C111.688 33.2508 111.245 34.5375 110.36 35.5437C109.433 36.5796 108.201 37.096 106.666 37.096C105.183 37.096 104.005 36.5998 103.126 35.6085C102.247 34.6151 101.808 33.3635 101.808 31.8537C101.808 30.2738 102.262 28.9797 103.167 27.9735C104.074 26.9663 105.296 26.4627 106.832 26.4627C108.312 26.4627 109.501 26.9599 110.401 27.9523C111.26 28.9149 111.688 30.158 111.688 31.6837ZM109.365 31.7358C109.365 30.8018 109.165 30.0007 108.765 29.3303C108.295 28.5207 107.622 28.1159 106.751 28.1159C105.853 28.1159 105.165 28.5207 104.696 29.3303C104.294 30.0007 104.094 30.8156 104.094 31.7782C104.094 32.7132 104.294 33.5165 104.696 34.1848C105.18 34.9944 105.856 35.3992 106.732 35.3992C107.589 35.3992 108.26 34.9859 108.746 34.1646C109.158 33.4782 109.365 32.6718 109.365 31.7358ZM118.976 28.662C118.743 28.6195 118.507 28.5985 118.27 28.5993C117.481 28.5993 116.872 28.8989 116.443 29.5024C116.071 30.0337 115.884 30.7051 115.884 31.5158V36.8654H113.642V29.8807C113.644 28.8104 113.623 27.7402 113.577 26.6709H115.529L115.611 28.6216H115.673C115.911 27.9512 116.283 27.4104 116.794 27.0056C117.262 26.6519 117.83 26.4603 118.414 26.4595C118.621 26.4595 118.808 26.4743 118.974 26.5009L118.976 28.662ZM128.999 31.2853C129.005 31.6296 128.978 31.9737 128.917 32.3127H122.194C122.219 33.3199 122.545 34.0913 123.169 34.6225C123.736 35.0964 124.469 35.3344 125.369 35.3344C126.364 35.3344 127.272 35.175 128.089 34.8531L128.44 36.4245C127.486 36.8452 126.359 37.0545 125.058 37.0545C123.494 37.0545 122.266 36.5892 121.373 35.6606C120.482 34.7309 120.035 33.4814 120.035 31.9164C120.035 30.38 120.45 29.0997 121.282 28.0787C122.152 26.9886 123.328 26.4435 124.808 26.4435C126.262 26.4435 127.363 26.9886 128.11 28.0787C128.702 28.9425 128.999 30.0135 128.999 31.2853ZM126.862 30.6977C126.878 30.0252 126.731 29.4461 126.427 28.9563C126.039 28.3252 125.442 28.0107 124.642 28.0107C123.91 28.0107 123.312 28.3177 122.858 28.934C122.485 29.4238 122.263 30.0124 122.195 30.6956L126.862 30.6977Z" fill="white"/>
<path d="M48.1216 17.7279C47.4958 17.7279 46.9545 17.6971 46.5039 17.6451V10.8091C47.1341 10.711 47.771 10.6627 48.4087 10.6646C50.9888 10.6646 52.177 11.9427 52.177 14.0263C52.177 16.4296 50.7735 17.7279 48.1216 17.7279ZM48.4994 11.5411C48.1512 11.5411 47.8546 11.5624 47.6088 11.6134V16.81C47.7417 16.8312 47.9971 16.8408 48.3559 16.8408C50.0464 16.8408 51.0088 15.8718 51.0088 14.0571C51.0088 12.4389 50.1382 11.5411 48.4994 11.5411ZM55.8799 17.78C54.4258 17.78 53.4834 16.6867 53.4834 15.2024C53.4834 13.6555 54.4458 12.5526 55.9622 12.5526C57.3953 12.5526 58.3587 13.5938 58.3587 15.1206C58.3587 16.6867 57.3657 17.78 55.8799 17.78ZM55.9221 13.3665C55.1233 13.3665 54.6115 14.1187 54.6115 15.1705C54.6115 16.2022 55.1338 16.9545 55.9116 16.9545C56.6893 16.9545 57.2116 16.1502 57.2116 15.1493C57.2116 14.1293 56.6998 13.3665 55.9221 13.3665ZM66.651 12.6557L65.0944 17.6663H64.0803L63.4356 15.4904C63.2753 14.9581 63.1418 14.418 63.0356 13.8722H63.0145C62.9333 14.4183 62.7792 14.9655 62.6156 15.4904L61.9297 17.6663H60.9051L59.4404 12.6557H60.5769L61.1404 15.0377C61.2733 15.6051 61.3852 16.1406 61.4781 16.6463H61.4992C61.5804 16.2245 61.7134 15.6975 61.9086 15.0484L62.6156 12.6567H63.5168L64.1933 14.9974C64.3568 15.5647 64.4898 16.1215 64.5932 16.6474H64.6227C64.6945 16.1321 64.8074 15.5849 64.9604 14.9974L65.5651 12.6567L66.651 12.6557ZM72.381 17.6663H71.2751V14.7891C71.2751 13.903 70.9374 13.4589 70.2716 13.4589C69.6162 13.4589 69.1656 14.0263 69.1656 14.6861V17.6663H68.0597V14.0879C68.0597 13.6448 68.0492 13.1699 68.0186 12.6546H68.9915L69.0432 13.4281H69.0738C69.3714 12.8926 69.975 12.5526 70.6514 12.5526C71.6962 12.5526 72.3821 13.3569 72.3821 14.6659L72.381 17.6663ZM75.4307 17.6663H74.3238V10.3564H75.4307V17.6663ZM79.4629 17.78C78.0098 17.78 77.0664 16.6867 77.0664 15.2024C77.0664 13.6555 78.0288 12.5526 79.5441 12.5526C80.9782 12.5526 81.9406 13.5938 81.9406 15.1206C81.9417 16.6867 80.9476 17.78 79.4629 17.78ZM79.504 13.3665C78.7052 13.3665 78.1934 14.1187 78.1934 15.1705C78.1934 16.2022 78.7168 16.9545 79.4924 16.9545C80.2712 16.9545 80.7925 16.1502 80.7925 15.1493C80.7936 14.1293 80.2828 13.3665 79.504 13.3665ZM86.301 17.6663L86.2208 17.0894H86.1912C85.8535 17.5537 85.3607 17.78 84.736 17.78C83.8443 17.78 83.2112 17.151 83.2112 16.3053C83.2112 15.0686 84.2759 14.4289 86.1195 14.4289V14.3365C86.1195 13.6767 85.7723 13.3463 85.0864 13.3463C84.5957 13.3463 84.1651 13.4706 83.7863 13.7181L83.5615 12.9861C84.0216 12.6971 84.5957 12.5526 85.27 12.5526C86.5701 12.5526 87.2264 13.2432 87.2264 14.6255V16.471C87.2264 16.9768 87.2486 17.3688 87.2982 17.6674L86.301 17.6663ZM86.149 15.1705C84.9207 15.1705 84.3044 15.4702 84.3044 16.181C84.3044 16.7069 84.6221 16.964 85.0632 16.964C85.6256 16.964 86.149 16.5316 86.149 15.944V15.1705ZM92.5967 17.6663L92.545 16.862H92.5144C92.1967 17.4698 91.6628 17.78 90.9167 17.78C89.7169 17.78 88.8283 16.7175 88.8283 15.2226C88.8283 13.6555 89.7496 12.5515 91.0074 12.5515C91.6733 12.5515 92.145 12.7778 92.4109 13.2326H92.4331V10.3564H93.5401V16.3159C93.5401 16.8004 93.5517 17.2541 93.5812 17.6663H92.5967ZM92.4331 14.7179C92.4331 14.0167 91.972 13.4185 91.2681 13.4185C90.4482 13.4185 89.9469 14.1506 89.9469 15.1812C89.9469 16.1916 90.4672 16.8833 91.2459 16.8833C91.9414 16.8833 92.4331 16.2745 92.4331 15.553V14.7179ZM100.559 17.78C99.1055 17.78 98.1632 16.6867 98.1632 15.2024C98.1632 13.6555 99.1256 12.5526 100.641 12.5526C102.075 12.5526 103.037 13.5938 103.037 15.1206C103.038 16.6867 102.045 17.78 100.559 17.78ZM100.6 13.3665C99.802 13.3665 99.2902 14.1187 99.2902 15.1705C99.2902 16.2022 99.8125 16.9545 100.589 16.9545C101.368 16.9545 101.889 16.1502 101.889 15.1493C101.891 14.1293 101.38 13.3665 100.6 13.3665ZM108.985 17.6663H107.878V14.7891C107.878 13.903 107.54 13.4589 106.874 13.4589C106.219 13.4589 105.769 14.0263 105.769 14.6861V17.6663H104.663V14.0879C104.663 13.6448 104.652 13.1699 104.621 12.6546H105.594L105.646 13.4281H105.677C105.973 12.8926 106.578 12.5515 107.253 12.5515C108.298 12.5515 108.985 13.3558 108.985 14.6648V17.6663ZM116.426 13.4908H115.209V15.9238C115.209 16.5433 115.422 16.8525 115.853 16.8525C116.048 16.8525 116.211 16.8312 116.343 16.8004L116.374 17.6461C116.16 17.729 115.873 17.7704 115.516 17.7704C114.644 17.7704 114.123 17.2859 114.123 16.0173V13.4908H113.397V12.6557H114.123V11.7377L115.209 11.4072V12.6546H116.426V13.4908ZM122.28 17.6663H121.175V14.8104C121.175 13.9136 120.839 13.46 120.172 13.46C119.599 13.46 119.065 13.852 119.065 14.6457V17.6663H117.96V10.3564H119.065V13.3665H119.087C119.435 12.8203 119.94 12.5515 120.583 12.5515C121.636 12.5515 122.28 13.376 122.28 14.6861V17.6663ZM128.278 15.4287H124.959C124.981 16.3775 125.604 16.913 126.528 16.913C127.018 16.913 127.47 16.8301 127.869 16.6761L128.041 17.4496C127.57 17.6557 127.016 17.7588 126.371 17.7588C124.815 17.7588 123.894 16.7685 123.894 15.2332C123.894 13.6969 124.837 12.542 126.247 12.542C127.518 12.542 128.316 13.4908 128.316 14.9241C128.323 15.0932 128.311 15.2626 128.278 15.4287ZM127.264 14.6351C127.264 13.8616 126.877 13.3155 126.17 13.3155C125.535 13.3155 125.032 13.8722 124.96 14.6351H127.264Z" fill="white"/>
</svg>
