<svg width="32" height="32" viewBox="0 0 32 32" fill="none" xmlns="http://www.w3.org/2000/svg">
<path d="M8.6662 22.6667H23.1052C24.3718 22.6667 25.0051 22.6667 25.5212 22.4379C25.9763 22.2362 26.3658 21.9111 26.6457 21.4995C26.9631 21.0326 27.0764 20.4095 27.303 19.1633L29.1041 9.25756C29.1826 8.82565 29.2218 8.60969 29.1612 8.44107C29.108 8.29313 29.0042 8.16876 28.8681 8.08993C28.7131 8.00008 28.4936 8.00008 28.0546 8.00008H6.6662M2.66602 2.66675H4.42122C4.74481 2.66675 4.9066 2.66675 5.03745 2.72585C5.15278 2.77795 5.2509 2.86179 5.32035 2.96759C5.39914 3.08762 5.42437 3.24743 5.47484 3.56705L9.19053 27.0998C9.241 27.4194 9.26623 27.5792 9.34502 27.6992C9.41446 27.805 9.51258 27.8889 9.62792 27.941C9.75877 28.0001 9.92056 28.0001 10.2441 28.0001H25.3327" stroke="#111111" stroke-width="2" stroke-linecap="round" stroke-linejoin="round"/>
<rect x="18.4707" y="3" width="9" height="10" rx="4.5" fill="white"/>
<path d="M20.9246 8.304C20.9246 6.512 21.6766 5.512 23.0126 5.512C24.3486 5.512 25.1086 6.512 25.1086 8.304C25.1086 10.088 24.3646 11.08 23.0126 11.08C21.6606 11.08 20.9246 10.088 20.9246 8.304ZM22.0686 8.304C22.0686 9.464 22.3886 10.088 23.0126 10.088C23.6286 10.088 23.9646 9.464 23.9646 8.304C23.9646 7.136 23.6286 6.504 23.0126 6.504C22.4046 6.504 22.0686 7.136 22.0686 8.304Z" fill="#008CFF"/>
</svg>
