<svg width="54" height="54" viewBox="0 0 54 54" fill="none" xmlns="http://www.w3.org/2000/svg">
<g clip-path="url(#clip0_1613_7976)">
<rect width="54" height="54" rx="27" fill="white"/>
<g clip-path="url(#clip1_1613_7976)">
<path d="M27.0002 0C41.9118 0 54.0002 12.0884 54.0002 27C54.0002 41.9116 41.9118 54 27.0002 54C27.0002 52.8261 23.4785 27 23.4785 27L27.0002 0Z" fill="#F0F0F0"/>
<path d="M27 54C12.0884 54 0 41.9116 0 27C0 12.0884 12.0884 0 27 0" fill="#496E2D"/>
<path d="M32.801 21.821L30.5858 24.8738L26.998 23.7103L29.2169 26.7605L27.0018 29.8133L30.5882 28.6456L32.8071 31.6957L32.8047 27.924L36.3912 26.7562L32.8036 25.5929L32.801 21.821Z" fill="#D80027"/>
<path d="M29.2401 34.6305C25.026 34.6305 21.6096 31.2141 21.6096 27C21.6096 22.7859 25.026 19.3695 29.2401 19.3695C30.554 19.3695 31.7904 19.7018 32.8698 20.2867C31.1764 18.6307 28.8607 17.6086 26.3053 17.6086C21.1186 17.6086 16.9141 21.8133 16.9141 26.9999C16.9141 32.1865 21.1187 36.3911 26.3053 36.3911C28.8608 36.3911 31.1765 35.3691 32.8698 33.7131C31.7904 34.2982 30.554 34.6305 29.2401 34.6305Z" fill="#D80027"/>
</g>
</g>
<rect x="1.5" y="1.5" width="51" height="51" rx="25.5" stroke="white" stroke-width="3"/>
<defs>
<clipPath id="clip0_1613_7976">
<rect width="54" height="54" rx="27" fill="white"/>
</clipPath>
<clipPath id="clip1_1613_7976">
<rect width="54" height="54" fill="white"/>
</clipPath>
</defs>
</svg>
