<svg width="54" height="54" viewBox="0 0 54 54" fill="none" xmlns="http://www.w3.org/2000/svg">
<g clip-path="url(#clip0_1613_7984)">
<rect width="54" height="54" rx="27" fill="white"/>
<g clip-path="url(#clip1_1613_7984)">
<path d="M15.2609 51.3209C18.8106 53.0373 22.7928 54 27 54C31.2073 54 35.1895 53.0373 38.7391 51.3209L41.087 27L38.7391 2.67912C35.1895 0.962719 31.2073 0 27 0C22.7928 0 18.8106 0.962719 15.2609 2.67912L12.9131 27L15.2609 51.3209Z" fill="#FFDA44"/>
<path d="M38.7393 51.3199C47.7707 46.9529 54.0002 37.7043 54.0002 27C54.0002 16.2956 47.7707 7.04709 38.7393 2.68005V51.3199Z" fill="#D80027"/>
<path d="M15.2609 51.3199V2.68005C6.22951 7.04709 0 16.2955 0 27C0 37.7044 6.22951 46.9529 15.2609 51.3199Z" fill="#0052B4"/>
<path d="M27 36.3913C27 32.0827 27 27 27 27H34.0435V30.5217C34.0435 31.1335 32.8697 33.3754 29.9721 35.2174C28.8747 35.9152 27.7387 36.1396 27 36.3913Z" fill="#D80027"/>
<path d="M19.9561 19.9565H26.9996V27H19.9561V19.9565Z" fill="#D80027"/>
<path d="M30.5214 17.6088C30.5214 16.312 29.4702 15.2609 28.1735 15.2609C27.7453 15.2609 27.3452 15.3774 26.9997 15.5775C26.654 15.3774 26.254 15.2609 25.8258 15.2609C24.5292 15.2609 23.4779 16.312 23.4779 17.6088H17.6084V29.3478C17.6084 33.718 21.079 36.2453 23.8006 37.5554C23.5969 37.9033 23.4779 38.3069 23.4779 38.7392C23.4779 40.036 24.5292 41.0871 25.8258 41.0871C26.254 41.0871 26.6541 40.9706 26.9997 40.7704C27.3453 40.9706 27.7453 41.0871 28.1735 41.0871C29.4702 41.0871 30.5214 40.036 30.5214 38.7392C30.5214 38.3069 30.4024 37.9033 30.1986 37.5554C32.9202 36.2453 36.3909 33.7181 36.3909 29.3478V17.6088H30.5214ZM32.8692 29.3478C32.8692 29.9596 32.8692 31.8212 29.9718 33.6633C28.8743 34.3611 27.7384 34.8136 26.9997 35.0651C26.2609 34.8136 25.1251 34.3611 24.0275 33.6633C21.1301 31.8212 21.1301 29.9596 21.1301 29.3478V21.1305H32.8692V29.3478Z" fill="#FF9811"/>
</g>
</g>
<rect x="1" y="1" width="52" height="52" rx="26" stroke="white" stroke-width="2"/>
<defs>
<clipPath id="clip0_1613_7984">
<rect width="54" height="54" rx="27" fill="white"/>
</clipPath>
<clipPath id="clip1_1613_7984">
<rect width="54" height="54" fill="white"/>
</clipPath>
</defs>
</svg>
