<svg width="54" height="54" viewBox="0 0 54 54" fill="none" xmlns="http://www.w3.org/2000/svg">
<g clip-path="url(#clip0_1613_7992)">
<rect width="54" height="54" rx="27" fill="white"/>
<g clip-path="url(#clip1_1613_7992)">
<path d="M0 27C0 12.0884 12.0884 0 27 0C41.9116 0 54 12.0884 54 27C52.8261 27 27 30.5217 27 30.5217L0 27Z" fill="#D80027"/>
<path d="M54 27C54 41.9116 41.9116 54 27 54C12.0884 54 0 41.9116 0 27" fill="#1B2638"/>
<path d="M23.2988 21.4747L25.5877 23.1358L24.7155 25.8261L27.0027 24.1623L29.2918 25.8234L28.4162 23.1339L30.7032 21.4703L27.875 21.472L26.9993 18.7826L26.127 21.4729L23.2988 21.4747Z" fill="#FFDA44"/>
<path d="M33.7504 15.3087C31.6228 14.0803 29.2964 13.5005 27.0004 13.5045V17.0255C28.6975 17.0224 30.4168 17.4506 31.9895 18.3587C36.7544 21.1098 38.3928 27.2244 35.6417 31.9893C32.8907 36.7542 26.7762 38.3926 22.0112 35.6416C20.623 34.8401 19.5024 33.7519 18.6764 32.4961L15.7363 34.4371C16.854 36.1361 18.3723 37.6071 20.2504 38.6913C26.6971 42.4133 34.9697 40.1967 38.6916 33.75C42.4136 27.3033 40.1971 19.0307 33.7504 15.3087Z" fill="#FFDA44"/>
<path d="M19.2159 24.6522C18.2825 26.3585 18.9092 28.4986 20.6155 29.432L32.0534 35.6821C31.2756 37.1039 31.6887 38.8345 33.1105 39.6124L36.2003 41.3025C37.6221 42.0805 39.4057 41.5582 40.1835 40.1362L41.8736 37.0466L19.2159 24.6522Z" fill="#FFDA44"/>
</g>
</g>
<rect x="1.5" y="1.5" width="51" height="51" rx="25.5" stroke="white" stroke-width="3"/>
<defs>
<clipPath id="clip0_1613_7992">
<rect width="54" height="54" rx="27" fill="white"/>
</clipPath>
<clipPath id="clip1_1613_7992">
<rect width="54" height="54" fill="white"/>
</clipPath>
</defs>
</svg>
