<svg width="54" height="54" viewBox="0 0 54 54" fill="none" xmlns="http://www.w3.org/2000/svg">
<g clip-path="url(#clip0_1613_8000)">
<rect width="54" height="54" rx="27" fill="white"/>
<g clip-path="url(#clip1_1613_8000)">
<path d="M0 27C0 28.8494 0.186469 30.6552 0.540738 32.4L27 34.0435L53.4594 32.4C53.8137 30.6552 54 28.8494 54 27C54 25.1506 53.8135 23.3448 53.4594 21.6L27 19.9565L0.540738 21.6C0.186469 23.3448 0 25.1506 0 27H0Z" fill="#0052B4"/>
<path d="M53.4596 32.4H0.541016C3.04263 44.724 13.9381 54 27.0003 54C40.0625 54 50.9579 44.724 53.4596 32.4Z" fill="#F0F0F0"/>
<path d="M0.541016 21.6H53.4597C50.9579 9.27598 40.0627 0 27.0003 0C13.9379 0 3.04263 9.27598 0.541016 21.6Z" fill="#1B2638"/>
<path d="M38.7389 21.6H15.2607L20.0575 19.3436L17.5031 14.6982L22.7117 15.6944L23.3719 10.4326L26.9998 14.3027L30.628 10.4326L31.2878 15.6944L36.4966 14.6982L33.9424 19.3438L38.7389 21.6Z" fill="#FFDA44"/>
<path d="M0 27C0 41.9116 12.0884 54 27 54L5.39958 10.799C2.00939 15.3119 0 20.9211 0 27Z" fill="#A2001D"/>
<path d="M27 54C41.9116 54 54 41.9116 54 27C54 20.9211 51.9906 15.312 48.6004 10.7991L27 54Z" fill="#A2001D"/>
</g>
</g>
<rect x="1.5" y="1.5" width="51" height="51" rx="25.5" stroke="white" stroke-width="3"/>
<defs>
<clipPath id="clip0_1613_8000">
<rect width="54" height="54" rx="27" fill="white"/>
</clipPath>
<clipPath id="clip1_1613_8000">
<rect width="54" height="54" fill="white"/>
</clipPath>
</defs>
</svg>
