<svg width="54" height="54" viewBox="0 0 54 54" fill="none" xmlns="http://www.w3.org/2000/svg">
<g clip-path="url(#clip0_1613_8008)">
<rect width="54" height="54" rx="27" fill="white"/>
<g clip-path="url(#clip1_1613_8008)">
<path d="M27 54C41.9117 54 54 41.9117 54 27C54 12.0883 41.9117 0 27 0C12.0883 0 0 12.0883 0 27C0 41.9117 12.0883 54 27 54Z" fill="#F0F0F0"/>
<path d="M26.9996 0C16.2951 0 7.04596 6.22951 2.67871 15.2609H51.3204C46.9532 6.22951 37.7039 0 26.9996 0Z" fill="#338AF3"/>
<path d="M26.9996 54C37.7039 54 46.9532 47.7705 51.3205 38.7391H2.67871C7.04596 47.7705 16.2951 54 26.9996 54Z" fill="#338AF3"/>
<path d="M35.0696 27L31.7721 28.5511L33.528 31.7446L29.9474 31.0596L29.4936 34.6767L26.9996 32.0164L24.5055 34.6767L24.0519 31.0596L20.4712 31.7445L22.2271 28.551L18.9297 27L22.2272 25.4489L20.4712 22.2555L24.0518 22.9404L24.5056 19.3232L26.9996 21.9836L29.4938 19.3232L29.9474 22.9404L33.5281 22.2555L31.7722 25.449L35.0696 27Z" fill="#FFDA44"/>
</g>
</g>
<rect x="1.5" y="1.5" width="51" height="51" rx="25.5" stroke="white" stroke-width="3"/>
<defs>
<clipPath id="clip0_1613_8008">
<rect width="54" height="54" rx="27" fill="white"/>
</clipPath>
<clipPath id="clip1_1613_8008">
<rect width="54" height="54" fill="white"/>
</clipPath>
</defs>
</svg>
