<svg width="54" height="54" viewBox="0 0 54 54" fill="none" xmlns="http://www.w3.org/2000/svg">
<g clip-path="url(#clip0_1613_8024)">
<rect width="54" height="54" rx="27" fill="white"/>
<g clip-path="url(#clip1_1613_8024)">
<path d="M27 54C41.9117 54 54 41.9117 54 27C54 12.0883 41.9117 0 27 0C12.0883 0 0 12.0883 0 27C0 41.9117 12.0883 54 27 54Z" fill="#FFDA44"/>
<path d="M26.9996 54C35.183 54 42.5155 50.3588 47.467 44.6087H6.53223C11.4837 50.3588 18.8162 54 26.9996 54Z" fill="#338AF3"/>
<path d="M54 27C54 12.0884 41.9116 0 27 0C12.0884 0 0 12.0884 0 27C0 29.4371 0.324844 31.7977 0.930129 34.0435H53.07C53.6752 31.7977 54 29.4371 54 27Z" fill="#338AF3"/>
<path d="M2.14648 37.5652C2.66697 38.7882 3.27542 39.9644 3.96318 41.0869H50.0374C50.7252 39.9643 51.3336 38.7881 51.8543 37.5652H2.14648Z" fill="#338AF3"/>
<path d="M12.3728 17.0293L7.09766 14.7012L12.3728 12.3731L14.7008 7.09805L17.0288 12.3731L22.3038 14.7012L17.0288 17.0293L14.7008 22.3043L12.3728 17.0293Z" fill="#F0F0F0"/>
<path d="M14.7015 10.0055L16.1392 13.2633L19.3971 14.7012L16.1392 16.1389L14.7015 19.3968L13.2637 16.1389L10.0059 14.7012L13.2637 13.2633L14.7015 10.0055Z" fill="#D80027"/>
</g>
</g>
<rect x="1.5" y="1.5" width="51" height="51" rx="25.5" stroke="white" stroke-width="3"/>
<defs>
<clipPath id="clip0_1613_8024">
<rect width="54" height="54" rx="27" fill="white"/>
</clipPath>
<clipPath id="clip1_1613_8024">
<rect width="54" height="54" fill="white"/>
</clipPath>
</defs>
</svg>
