<svg width="54" height="54" viewBox="0 0 54 54" fill="none" xmlns="http://www.w3.org/2000/svg">
<g clip-path="url(#clip0_1613_8143)">
<rect width="54" height="54" rx="27" fill="white"/>
<g clip-path="url(#clip1_1613_8143)">
<path d="M54 27C54 41.9116 41.9116 54 27 54C12.0884 54 0 41.9116 0 27C0 27.0063 27 0.00305859 27 0C41.9116 0 54 12.0884 54 27Z" fill="#0052B4"/>
<path d="M26.9997 0C26.9982 0 26.9966 0.000105469 26.9951 0.000105469L26.9997 0Z" fill="#F0F0F0"/>
<path d="M26.9277 27H27C27 26.9755 27 26.9521 27 26.9277C26.9759 26.9519 26.9519 26.9759 26.9277 27Z" fill="#F0F0F0"/>
<path d="M27 14.0871C27 9.33622 27 6.22309 27 0.00012207H26.9955C12.0859 0.00254785 0 12.0898 0 27H14.0869V19.0675L22.0194 27H26.9279C26.952 26.976 26.9761 26.9519 27.0001 26.9278C27.0001 25.1088 27.0001 23.4857 27.0001 22.0197L19.0675 14.0871H27Z" fill="#F0F0F0"/>
<path d="M13.6596 3.52173C9.4367 5.92631 5.92607 9.43694 3.52148 13.6598V27H10.565V10.5654V10.5652H26.9998C26.9998 8.34376 26.9998 6.22742 26.9998 3.52173H13.6596Z" fill="#D80027"/>
<path d="M26.9999 23.6797L17.4072 14.0871H14.0869C14.0869 14.087 14.0869 14.0871 14.0869 14.0871L26.9998 26.9999H26.9999C26.9999 26.9999 26.9999 24.7107 26.9999 23.6797Z" fill="#D80027"/>
<path d="M16.2841 31.6957L17.766 34.7941L21.1122 34.0207L19.6137 37.1112L22.3046 39.2451L18.9542 40.0003L18.9636 43.4348L16.2841 41.2861L13.6048 43.4348L13.6142 40.0003L10.2637 39.2451L12.9547 37.1112L11.456 34.0207L14.8024 34.7941L16.2841 31.6957Z" fill="#F0F0F0"/>
<path d="M40.4252 37.5652L41.1661 39.1144L42.8393 38.7277L42.0899 40.2729L43.4355 41.3399L41.7602 41.7175L41.7649 43.4347L40.4252 42.3603L39.0856 43.4347L39.0902 41.7175L37.415 41.3399L38.7605 40.2729L38.0113 38.7277L39.6843 39.1144L40.4252 37.5652Z" fill="#F0F0F0"/>
<path d="M33.5328 21.1305L34.2736 22.6798L35.9467 22.293L35.1975 23.8382L36.5429 24.9052L34.8678 25.2828L34.8723 27L33.5328 25.9256L32.1931 27L32.1976 25.2828L30.5225 24.9052L31.8679 23.8382L31.1187 22.293L32.7918 22.6798L33.5328 21.1305Z" fill="#F0F0F0"/>
<path d="M40.4252 11.7391L41.1661 13.2885L42.8393 12.9017L42.09 14.4469L43.4354 15.5139L41.7602 15.8915L41.7649 17.6088L40.4252 16.5344L39.0856 17.6088L39.0902 15.8915L37.415 15.5139L38.7604 14.4469L38.0113 12.9017L39.6843 13.2885L40.4252 11.7391Z" fill="#F0F0F0"/>
<path d="M46.4458 18.7826L47.1866 20.3319L48.8598 19.9451L48.1106 21.4903L49.456 22.5573L47.7808 22.935L47.7854 24.6521L46.4458 23.5778L45.1062 24.6521L45.1107 22.935L43.4355 22.5573L44.781 21.4903L44.0318 19.9451L45.7048 20.3319L46.4458 18.7826Z" fill="#F0F0F0"/>
<path d="M42.1406 27L42.7233 28.7936H44.6093L43.0835 29.9022L43.6664 31.6957L42.1406 30.5872L40.6149 31.6957L41.1976 29.9022L39.6719 28.7936H41.5578L42.1406 27Z" fill="#F0F0F0"/>
</g>
</g>
<rect x="1.5" y="1.5" width="51" height="51" rx="25.5" stroke="white" stroke-width="3"/>
<defs>
<clipPath id="clip0_1613_8143">
<rect width="54" height="54" rx="27" fill="white"/>
</clipPath>
<clipPath id="clip1_1613_8143">
<rect width="54" height="54" fill="white"/>
</clipPath>
</defs>
</svg>
