<svg width="54" height="54" viewBox="0 0 54 54" fill="none" xmlns="http://www.w3.org/2000/svg">
<g clip-path="url(#clip0_1613_8048)">
<rect width="54" height="54" rx="27" fill="white"/>
<g clip-path="url(#clip1_1613_8048)">
<path d="M54 27C54 23.6974 53.406 20.5336 52.3206 17.6088L27 16.4348L1.67938 17.6086C0.594105 20.5336 0 23.6974 0 27C0 30.3027 0.594105 33.4664 1.67938 36.3913L27 37.5652L52.3206 36.3914C53.406 33.4664 54 30.3027 54 27Z" fill="#D80027"/>
<path d="M27.0003 54C38.6094 54 48.506 46.6729 52.3209 36.3912H1.67969C5.4946 46.6729 15.3913 54 27.0003 54Z" fill="#6DA544"/>
<path d="M1.67969 17.6087H52.321C48.506 7.32713 38.6094 0 27.0003 0C15.3913 0 5.4946 7.32713 1.67969 17.6087Z" fill="#338AF3"/>
<path d="M27.5868 34.6305C23.3727 34.6305 19.9563 31.2141 19.9563 27C19.9563 22.7859 23.3727 19.3695 27.5868 19.3695C28.9007 19.3695 30.1371 19.7018 31.2165 20.2867C29.5231 18.6307 27.2074 17.6086 24.652 17.6086C19.4653 17.6086 15.2607 21.8133 15.2607 26.9999C15.2607 32.1865 19.4654 36.3911 24.652 36.3911C27.2075 36.3911 29.5232 35.3691 31.2165 33.7131C30.1371 34.2982 28.9007 34.6305 27.5868 34.6305Z" fill="#F0F0F0"/>
<path d="M33.4564 21.7174L34.4671 24.5599L37.1918 23.2645L35.8966 25.9892L38.7391 27L35.8966 28.0108L37.1918 30.7355L34.4671 29.4401L33.4564 32.2826L32.4458 29.4401L29.7211 30.7355L31.0164 28.0108L28.1738 27L31.0164 25.9892L29.7211 23.2645L32.4458 24.5599L33.4564 21.7174Z" fill="#F0F0F0"/>
</g>
</g>
<rect x="1.5" y="1.5" width="51" height="51" rx="25.5" stroke="white" stroke-width="3"/>
<defs>
<clipPath id="clip0_1613_8048">
<rect width="54" height="54" rx="27" fill="white"/>
</clipPath>
<clipPath id="clip1_1613_8048">
<rect width="54" height="54" fill="white"/>
</clipPath>
</defs>
</svg>
