<svg width="54" height="54" viewBox="0 0 54 54" fill="none" xmlns="http://www.w3.org/2000/svg">
<g clip-path="url(#clip0_1613_8056)">
<rect width="54" height="54" rx="27" fill="white"/>
<g clip-path="url(#clip1_1613_8056)">
<path d="M27 54C41.9117 54 54 41.9117 54 27C54 12.0883 41.9117 0 27 0C12.0883 0 0 12.0883 0 27C0 41.9117 12.0883 54 27 54Z" fill="#F0F0F0"/>
<path d="M52.3206 17.6088H1.67938C0.594 20.5337 0 23.6974 0 27C0 30.3027 0.594 33.4663 1.67938 36.3913H52.3207C53.406 33.4663 54 30.3027 54 27C54 23.6974 53.406 20.5337 52.3206 17.6088Z" fill="#0052B4"/>
<path d="M26.9996 0C18.8162 0 11.4837 3.6412 6.53223 9.39125H47.4669C42.5155 3.6412 35.183 0 26.9996 0Z" fill="#D80027"/>
<path d="M47.467 44.6088H6.53223C11.4837 50.3588 18.8162 54 26.9996 54C35.183 54 42.5155 50.3588 47.467 44.6088Z" fill="#D80027"/>
</g>
</g>
<rect x="1.5" y="1.5" width="51" height="51" rx="25.5" stroke="white" stroke-width="3"/>
<defs>
<clipPath id="clip0_1613_8056">
<rect width="54" height="54" rx="27" fill="white"/>
</clipPath>
<clipPath id="clip1_1613_8056">
<rect width="54" height="54" fill="white"/>
</clipPath>
</defs>
</svg>
