<svg width="54" height="54" viewBox="0 0 54 54" fill="none" xmlns="http://www.w3.org/2000/svg">
<g clip-path="url(#clip0_1613_8064)">
<rect width="54" height="54" rx="27" fill="white"/>
<g clip-path="url(#clip1_1613_8064)">
<path d="M27 54C41.9117 54 54 41.9117 54 27C54 12.0883 41.9117 0 27 0C12.0883 0 0 12.0883 0 27C0 41.9117 12.0883 54 27 54Z" fill="#496E2D"/>
<path d="M21.1307 38.7391C27.614 38.7391 32.8698 33.4833 32.8698 27C32.8698 20.5167 27.614 15.2609 21.1307 15.2609C14.6474 15.2609 9.3916 20.5167 9.3916 27C9.3916 33.4833 14.6474 38.7391 21.1307 38.7391Z" fill="#D80027"/>
</g>
</g>
<rect x="1.5" y="1.5" width="51" height="51" rx="25.5" stroke="white" stroke-width="3"/>
<defs>
<clipPath id="clip0_1613_8064">
<rect width="54" height="54" rx="27" fill="white"/>
</clipPath>
<clipPath id="clip1_1613_8064">
<rect width="54" height="54" fill="white"/>
</clipPath>
</defs>
</svg>
