<svg width="54" height="54" viewBox="0 0 54 54" fill="none" xmlns="http://www.w3.org/2000/svg">
<g clip-path="url(#clip0_1613_8080)">
<rect width="54" height="54" rx="27" fill="white"/>
<g clip-path="url(#clip1_1613_8080)">
<path d="M27 54C41.9117 54 54 41.9117 54 27C54 12.0883 41.9117 0 27 0C12.0883 0 0 12.0883 0 27C0 41.9117 12.0883 54 27 54Z" fill="#6DA544"/>
<path d="M26.9996 10.5652L49.304 27L26.9996 43.4348L4.69531 27L26.9996 10.5652Z" fill="#FFDA44"/>
<path d="M26.9997 36.3913C32.1863 36.3913 36.3909 32.1867 36.3909 27C36.3909 21.8134 32.1863 17.6088 26.9997 17.6088C21.813 17.6088 17.6084 21.8134 17.6084 27C17.6084 32.1867 21.813 36.3913 26.9997 36.3913Z" fill="#F0F0F0"/>
<path d="M22.3039 26.4131C20.6709 26.4131 19.0949 26.6615 17.6113 27.1224C17.677 32.2524 21.854 36.3914 26.9996 36.3914C30.1814 36.3914 32.9915 34.8076 34.6903 32.3869C31.7839 28.7486 27.3119 26.4131 22.3039 26.4131Z" fill="#0052B4"/>
<path d="M36.2164 28.7993C36.3294 28.2167 36.3905 27.6156 36.3905 27C36.3905 21.8133 32.1859 17.6088 26.9992 17.6088C23.1292 17.6088 19.8069 19.9503 18.3691 23.2934C19.64 23.0301 20.9559 22.8914 22.3037 22.8914C27.7582 22.8913 32.6926 25.1586 36.2164 28.7993Z" fill="#0052B4"/>
</g>
</g>
<rect x="1.5" y="1.5" width="51" height="51" rx="25.5" stroke="white" stroke-width="3"/>
<defs>
<clipPath id="clip0_1613_8080">
<rect width="54" height="54" rx="27" fill="white"/>
</clipPath>
<clipPath id="clip1_1613_8080">
<rect width="54" height="54" fill="white"/>
</clipPath>
</defs>
</svg>
